<svg width="70" height="70" viewBox="0 0 96 110" fill="none" xmlns="http://www.w3.org/2000/svg">
<path d="M20 33.42C22.45 34.77 32.55 43.24 32.55 43.24L41.26 49.68L40.45 47.3C34.54 36.79 37.77 28.68 37.77 28.68L35.89 22.78C32.65 8.34 14.63 11.47 14.63 11.47C12.75 27.19 17.59 32.08 20 33.42Z" fill="black"/>
<path d="M16.51 38.42C9.25001 37.42 4.14001 40.15 1.18001 40.15C-1.77999 40.15 1.45001 44.77 4.18001 48.15C6.91001 51.53 10.37 58.51 22.47 57.15C34.57 55.79 35.79 54.98 43.39 56.6L41.2 51.33C41.2 51.33 23.78 39.38 16.51 38.42Z" fill="black"/>
<path d="M94.82 40.52C91.82 40.52 82.1 36.97 75.28 39.64C66.06 43.25 52.65 52.24 52.65 52.24L51 56.39C58.6 54.78 60.89 56.12 73 57.48C85.11 58.84 89.14 51.82 91.83 48.48C94.52 45.14 97.78 40.52 94.82 40.52Z" fill="black"/>
<path d="M45.56 41.11C44.67 38.36 44.81 30.84 42.32 29.67C39.83 28.5 38.62 30.15 39.04 35.42C39.46 40.69 41.63 45.8 42.7 46.47L44.48 54.13C44.48 54.13 46.07 58.61 46.48 54.13C46.48 54.13 44.7 46.84 44.7 45.74C45.2291 45.1072 45.5862 44.3487 45.7368 43.5377C45.8874 42.7267 45.8266 41.8906 45.56 41.11Z" fill="black"/>
<path d="M50.07 54.13L51.85 46.47C52.92 45.8 55.09 40.69 55.51 35.42C55.93 30.15 54.73 28.5 52.23 29.67C49.73 30.84 49.89 38.35 49 41.11C48.7375 41.8931 48.6814 42.7307 48.8374 43.5418C48.9933 44.3529 49.3558 45.11 49.89 45.74C49.89 46.84 48.11 54.13 48.11 54.13C48.48 58.6 50.07 54.13 50.07 54.13Z" fill="black"/>
<path d="M47.33 39.1C47.33 39.1 47.24 30.23 52.11 23.61C57.71 16 65.85 10.14 68.86 7.99001C68.9824 7.90694 69.0848 7.79777 69.1599 7.67034C69.235 7.54292 69.2809 7.40042 69.2943 7.25312C69.3077 7.10582 69.2882 6.95739 69.2373 6.81851C69.1865 6.67963 69.1054 6.55378 69 6.45001L68.1 5.60001C67.928 5.43094 67.7007 5.32973 67.46 5.31503C67.2192 5.30033 66.9813 5.37313 66.79 5.52001C63.39 8.12001 48.61 20.72 46.89 32.58C46.86 32.57 45.84 34.73 47.33 39.1Z" fill="black"/>
<path d="M42.84 4.68C45.3 6.55 49.93 10.98 49.16 21.28L50.11 20.04C50.11 20.04 52.29 11.04 45.53 1.81C45.4477 1.70408 45.3424 1.61837 45.2219 1.5594C45.1014 1.50044 44.9691 1.46979 44.835 1.46979C44.7009 1.46979 44.5686 1.50044 44.4481 1.5594C44.3276 1.61837 44.2223 1.70408 44.14 1.81L42.74 3.51C42.603 3.68043 42.5369 3.89713 42.5555 4.11504C42.5741 4.33295 42.676 4.53529 42.84 4.68Z" fill="black"/>
<path d="M30.77 9.48C33.6 12.57 42.71 22.88 45.3 29.77L45.7 28.06C45.7 28.06 41.32 19.24 37.57 15.11C33.8547 10.8963 31.004 5.99336 29.18 0.680003C29.0977 0.445963 28.9314 0.250856 28.7133 0.132582C28.4953 0.0143078 28.241 -0.0186882 28 0.0400028L26.21 0.540003C26.0734 0.585016 25.9481 0.658975 25.8426 0.756834C25.7372 0.854693 25.6541 0.974146 25.5991 1.10704C25.544 1.23994 25.5183 1.38315 25.5236 1.5269C25.5289 1.67065 25.5652 1.81156 25.63 1.94C27.0884 4.61797 28.8103 7.1438 30.77 9.48Z" fill="black"/>
<path d="M63.83 15.11L63.67 15.27C63.49 15.44 63.31 15.61 63.13 15.79C61.29 17.62 56.31 22.79 54.63 26.94C55.2873 27.272 55.8496 27.7655 56.2641 28.3742C56.6786 28.9828 56.9318 29.6868 57 30.42C58.0588 36.2179 56.8564 42.2012 53.64 47.14L52.7 50.27C52.7 50.27 54.83 48.99 65.12 40.68C65.12 40.68 72.98 34.6 75.43 33.25C77.88 31.9 82.72 27.02 80.84 11.3C80.84 11.3 70.24 9.46 63.84 15.11H63.83Z" fill="black"/>
<path d="M47.29 58.03C46.0708 57.8481 44.8969 57.4376 43.83 56.82C43.7209 56.6876 43.627 56.5433 43.55 56.39V56.69L43.31 56.55C43.31 56.55 29.21 56.93 24.54 60.01C19.87 63.09 16.34 62.38 14.16 65.61C11.98 68.84 18.86 74.61 25.46 75.83C32.06 77.05 44.76 62.89 46.33 60.49C46.3876 60.2782 46.5133 60.0912 46.6877 59.9578C46.8621 59.8245 47.0755 59.7523 47.295 59.7523C47.5145 59.7523 47.728 59.8245 47.9024 59.9578C48.0768 60.0912 48.2024 60.2782 48.26 60.49C49.83 62.89 62.47 77.1 69.08 75.84C75.69 74.58 82.56 68.84 80.38 65.62C78.2 62.4 74.66 63.1 70 60.02C65.34 56.94 51.23 56.56 51.23 56.56L51 56.68V56.38C50.923 56.5333 50.8291 56.6776 50.72 56.81C49.663 57.4275 48.4996 57.8414 47.29 58.03Z" fill="black"/>
<path d="M46.71 63.31L44.31 66.16L44.85 86.25C44.85 86.25 47.06 88.76 48.65 86.25L49.88 65.45L48 63.29C47.9197 63.1967 47.8199 63.1222 47.7076 63.0718C47.5954 63.0213 47.4734 62.9962 47.3503 62.9981C47.2272 63 47.1061 63.0289 46.9955 63.0828C46.8848 63.1367 46.7874 63.2143 46.71 63.31Z" fill="black"/>
</svg>
